<svg width="101" height="21" viewBox="0 0 101 21" fill="none" xmlns="http://www.w3.org/2000/svg">
<path d="M22.24 0.456V20H18.32V7.288L13.084 20H10.116L4.852 7.288V20H0.932V0.456H5.384L11.6 14.988L17.816 0.456H22.24ZM33.0036 20.252C31.5103 20.252 30.1663 19.9253 28.9716 19.272C27.7769 18.6 26.8343 17.6573 26.1436 16.444C25.4716 15.2307 25.1356 13.8307 25.1356 12.244C25.1356 10.6573 25.4809 9.25733 26.1716 8.044C26.8809 6.83067 27.8423 5.89733 29.0556 5.244C30.2689 4.572 31.6223 4.236 33.1156 4.236C34.6089 4.236 35.9623 4.572 37.1756 5.244C38.3889 5.89733 39.3409 6.83067 40.0316 8.044C40.7409 9.25733 41.0956 10.6573 41.0956 12.244C41.0956 13.8307 40.7316 15.2307 40.0036 16.444C39.2943 17.6573 38.3236 18.6 37.0916 19.272C35.8783 19.9253 34.5156 20.252 33.0036 20.252ZM33.0036 16.836C33.7129 16.836 34.3756 16.668 34.9916 16.332C35.6263 15.9773 36.1303 15.4547 36.5036 14.764C36.8769 14.0733 37.0636 13.2333 37.0636 12.244C37.0636 10.7693 36.6716 9.64 35.8876 8.856C35.1223 8.05333 34.1796 7.652 33.0596 7.652C31.9396 7.652 30.9969 8.05333 30.2316 8.856C29.4849 9.64 29.1116 10.7693 29.1116 12.244C29.1116 13.7187 29.4756 14.8573 30.2036 15.66C30.9503 16.444 31.8836 16.836 33.0036 16.836ZM52.5671 4.264C54.4151 4.264 55.9084 4.852 57.0471 6.028C58.1857 7.18533 58.7551 8.80933 58.7551 10.9V20H54.8351V11.432C54.8351 10.2 54.5271 9.25733 53.9111 8.604C53.2951 7.932 52.4551 7.596 51.3911 7.596C50.3084 7.596 49.4497 7.932 48.8151 8.604C48.1991 9.25733 47.8911 10.2 47.8911 11.432V20H43.9711V4.488H47.8911V6.42C48.4137 5.748 49.0764 5.22533 49.8791 4.852C50.7004 4.46 51.5964 4.264 52.5671 4.264ZM61.4748 12.188C61.4748 10.62 61.7828 9.22933 62.3988 8.016C63.0334 6.80267 63.8828 5.86933 64.9468 5.216C66.0294 4.56267 67.2334 4.236 68.5588 4.236C69.7161 4.236 70.7241 4.46933 71.5828 4.936C72.4601 5.40267 73.1601 5.99067 73.6828 6.7V4.488H77.6308V20H73.6828V17.732C73.1788 18.46 72.4788 19.0667 71.5828 19.552C70.7054 20.0187 69.6881 20.252 68.5308 20.252C67.2241 20.252 66.0294 19.916 64.9468 19.244C63.8828 18.572 63.0334 17.6293 62.3988 16.416C61.7828 15.184 61.4748 13.7747 61.4748 12.188ZM73.6828 12.244C73.6828 11.292 73.4961 10.48 73.1228 9.808C72.7494 9.11733 72.2454 8.59467 71.6108 8.24C70.9761 7.86667 70.2948 7.68 69.5668 7.68C68.8388 7.68 68.1668 7.85733 67.5508 8.212C66.9348 8.56667 66.4308 9.08933 66.0388 9.78C65.6654 10.452 65.4788 11.2547 65.4788 12.188C65.4788 13.1213 65.6654 13.9427 66.0388 14.652C66.4308 15.3427 66.9348 15.8747 67.5508 16.248C68.1854 16.6213 68.8574 16.808 69.5668 16.808C70.2948 16.808 70.9761 16.6307 71.6108 16.276C72.2454 15.9027 72.7494 15.38 73.1228 14.708C73.4961 14.0173 73.6828 13.196 73.6828 12.244ZM90.0273 20L86.8353 15.184L84.0073 20H79.8073L84.8753 12.216L79.7513 4.488H84.1753L87.3393 9.276L90.1953 4.488H94.3953L89.2993 12.216L94.4513 20H90.0273Z" fill="#3A3165"/>
<path d="M98.3164 20.196C97.6071 20.196 97.0191 19.9813 96.5524 19.552C96.1044 19.104 95.8804 18.5533 95.8804 17.9C95.8804 17.2467 96.1044 16.7053 96.5524 16.276C97.0191 15.828 97.6071 15.604 98.3164 15.604C99.0071 15.604 99.5764 15.828 100.024 16.276C100.472 16.7053 100.696 17.2467 100.696 17.9C100.696 18.5533 100.472 19.104 100.024 19.552C99.5764 19.9813 99.0071 20.196 98.3164 20.196Z" fill="#55BC7E"/>
</svg>
